{"title":"A True Story 2013 HDRip x264 AC3 UNiQUE","uid":8941900,"size":1501815180,"categoryP":"video","categoryS":"movies","magnet":"?xt=urn:btih:ede114cdcdd53c12d3017070f5bc8c594eef86ab&amp;dn=A+True+Story+2013+HDRip+x264+AC3+UNiQUE&amp;tr=udp%3A%2F%2Ftracker.openbittorrent.com%3A80&amp;tr=udp%3A%2F%2Fopen.demonii.com%3A1337&amp;tr=udp%3A%2F%2Ftracker.coppersurfer.tk%3A6969&amp;tr=udp%3A%2F%2Fexodus.desync.com%3A6969","seeders":3,"leechers":0,"uploader":"xxxlavalxxx","files":-1,"time":1379638506,"description":" &lt;a href=&quot;\nhttp://www.imdb.com/title/tt1524083/&quot; rel=&quot;nofollow&quot; target=&quot;_NEW&quot;&gt;\nhttp://www.imdb.com/title/tt1524083/&lt;/a&gt;\n\n\n\nMike and Matt own nothing and share everything, including their life's work, a screenplay, which seems to be their only escape from the harsh reality that is the Hollywood machine. \n\n\n\nDirector:\n Malcolm Goodwin \n\nWriters:\n Cameron Fife, Tyler McGee \n\nStars:\n Katrina Bowden, Jon Gries, Malcolm Goodwin \n\nGenres:\n  Comedy \n\nCountry:\n USA \n\nLanguage:\n English \n\n\n\n\nSource: own 720p\n\n General:\n\n Format                                   : Matroska\n Format version                           : Version 2\n File size                                : 1.40 GiB\n Duration                                 : 1h 36mn\n Overall bit rate mode                    : Variable\n Overall bit rate                         : 2 084 Kbps\n Encoded date                             : UTC 2013-09-20 08:25:04\n Writing application                      : mkvmerge v6.4.1 ('Omega Point') built on Sep 16 2013 22:05:10\n Writing library                          : libebml v1.3.0 + libmatroska v1.4.1\n\n Video:\n\n ID                                       : 1\n Format                                   : AVC\n Format/Info                              : Advanced Video Codec\n Format profile                           : &lt;a class=&quot;__cf_email__&quot; href=&quot;/cdn-cgi/l/email-protection&quot; data-cfemail=&quot;a0e8c9c7c8e0ec948e91&quot;&gt;[email&amp;#160;protected]&lt;/a&gt;&lt;script cf-hash='f9e31' type=&quot;text/javascript&quot;&gt;\n/* &lt;![CDATA[ */!function(){try{var t=&quot;currentScript&quot;in document?document.currentScript:function(){for(var t=document.getElementsByTagName(&quot;script&quot;),e=t.length;e--;)if(t[e].getAttribute(&quot;cf-hash&quot;))return t[e]}();if(t&amp;&amp;t.previousSibling){var e,r,n,i,c=t.previousSibling,a=c.getAttribute(&quot;data-cfemail&quot;);if(a){for(e=&quot;&quot;,r=parseInt(a.substr(0,2),16),n=2;a.length-n;n+=2)i=parseInt(a.substr(n,2),16)^r,e+=String.fromCharCode(i);e=document.createTextNode(e),c.parentNode.replaceChild(e,c)}}}catch(u){}}();/* ]]&gt; */&lt;/script&gt;\n Format settings, CABAC                   : Yes\n Format settings, ReFrames                : 3 frames\n Codec ID                                 : V_MPEG4/ISO/AVC\n Duration                                 : 1h 36mn\n Bit rate mode                            : Variable\n Bit rate                                 : 1 890 Kbps\n Maximum bit rate                         : 40.0 Mbps\n Width                                    : 720 pixels\n Height                                   : 336 pixels\n Display aspect ratio                     : 2.143\n Frame rate                               : 23.976 fps\n Color space                              : YUV\n Chroma subsampling                       : 4:2:0\n Bit depth                                : 8 bits\n Scan type                                : Progressive\n Bits/(Pixel*Frame)                       : 0.326\n Stream size                              : 1.24 GiB (89%)\n Writing library                          : x264 core 138 r2358 9e941d1\n Default                                  : Yes\n\n Audio:\n\n ID                                       : 2\n Format                                   : AC-3\n Format/Info                              : Audio Coding 3\n Mode extension                           : CM (complete main)\n Format settings, Endianness              : Big\n Codec ID                                 : A_AC3\n Duration                                 : 1h 36mn\n Bit rate mode                            : Constant\n Bit rate                                 : 192 Kbps\n Channel(s)                               : 2 channels\n Channel positions                        : Front: L R\n Sampling rate                            : 48.0 KHz\n Bit depth                                : 16 bits\n Compression mode                         : Lossy\n Stream size                              : 132 MiB (9%)\n Language                                 : English\n Default                                  : Yes\n Forced                                   : No\n\n\n\n &lt;a href=&quot;\nhttp://bayimg.com/lapcPaaeM&quot; rel=&quot;nofollow&quot; target=&quot;_NEW&quot;&gt;\nhttp://bayimg.com/lapcPaaeM&lt;/a&gt; &lt;a href=&quot;\nhttp://bayimg.com/mapCbAAem&quot; rel=&quot;nofollow&quot; target=&quot;_NEW&quot;&gt;\nhttp://bayimg.com/mapCbAAem&lt;/a&gt;","torrent":{"xt":"urn:btih:ede114cdcdd53c12d3017070f5bc8c594eef86ab","amp;dn":"A+True+Story+2013+HDRip+x264+AC3+UNiQUE","amp;tr":["udp%3A%2F%2Ftracker.openbittorrent.com%3A80","udp%3A%2F%2Fopen.demonii.com%3A1337","udp%3A%2F%2Ftracker.coppersurfer.tk%3A6969","udp%3A%2F%2Fexodus.desync.com%3A6969"],"infoHash":"ede114cdcdd53c12d3017070f5bc8c594eef86ab","infoHashBuffer":{"type":"Buffer","data":[237,225,20,205,205,213,60,18,211,1,112,112,245,188,140,89,78,239,134,171]},"announce":[],"urlList":[]}}